<svg width="50" height="50" viewBox="0 0 50 50" fill="none" xmlns="http://www.w3.org/2000/svg">
<rect width="50" height="50" rx="6" fill="#808080"/>
<path d="M19.7799 30.1459C19.5593 29.8851 19.4489 29.5894 19.4489 29.2588C19.4489 28.9282 19.5593 28.6521 19.7799 28.4306L22.0068 26.2038H13.3702C13.0292 26.2038 12.7431 26.0882 12.512 25.8571C12.2809 25.626 12.1657 25.3403 12.1665 25.0001C12.1665 24.659 12.2821 24.373 12.5132 24.1418C12.7443 23.9107 13.03 23.7956 13.3702 23.7964H22.0068L19.7799 21.5695C19.5392 21.3288 19.4188 21.0427 19.4188 20.7113C19.4188 20.3799 19.5392 20.0942 19.7799 19.8542C20.0006 19.6135 20.2767 19.4931 20.6081 19.4931C20.9395 19.4931 21.2151 19.6035 21.435 19.8242L25.7684 24.1575C25.8887 24.2779 25.9742 24.4083 26.0247 24.5487C26.0753 24.6891 26.1002 24.8396 26.0994 25.0001C26.0994 25.1606 26.0745 25.311 26.0247 25.4515C25.975 25.5919 25.8895 25.7223 25.7684 25.8427L21.435 30.176C21.1943 30.4167 20.9134 30.5271 20.5924 30.507C20.2714 30.487 20.0006 30.3666 19.7799 30.1459ZM26.2035 35.8334C25.8625 35.8334 25.5768 35.7183 25.3465 35.4879C25.1162 35.2576 25.0006 34.9716 24.9998 34.6297C24.9998 34.2887 25.1154 34.0026 25.3465 33.7715C25.5776 33.5404 25.8633 33.4252 26.2035 33.426H33.4258V16.5742H26.2035C25.8625 16.5742 25.5764 16.4586 25.3453 16.2275C25.1142 15.9964 24.999 15.7107 24.9998 15.3705C24.9998 15.0294 25.1154 14.7433 25.3465 14.5122C25.5776 14.2811 25.8633 14.1659 26.2035 14.1668H33.4258C34.0878 14.1668 34.6547 14.4027 35.1266 14.8745C35.5984 15.3464 35.834 15.9129 35.8332 16.5742V33.426C35.8332 34.088 35.5972 34.655 35.1254 35.1268C34.6535 35.5987 34.087 35.8342 33.4258 35.8334H26.2035Z" fill="white" stroke="white"/>
</svg>
