<svg width="45" height="156" viewBox="0 0 45 156" fill="none" xmlns="http://www.w3.org/2000/svg">
<mask id="mask0_73_301" style="mask-type:alpha" maskUnits="userSpaceOnUse" x="0" y="0" width="45" height="156">
<rect width="45" height="156" fill="#D9D9D9"/>
</mask>
<g mask="url(#mask0_73_301)">
<path d="M35 36H9.5C3.97715 36 -0.5 31.5228 -0.5 26V10C-0.5 4.47715 -4.97715 0 -10.5 0H-32C-37.5228 0 -42 4.47716 -42 10V146C-42 151.523 -37.5228 156 -32 156H-10.5C-4.97715 156 -0.5 151.523 -0.5 146V126.5C-0.5 120.977 3.97715 116.5 9.5 116.5H35C40.5229 116.5 45 112.023 45 106.5V46C45 40.4772 40.5229 36 35 36Z" fill="white"/>
<path d="M23.7543 83.0383L18.3195 77.4923C18.1104 77.279 17.9537 77.0479 17.8492 76.799C17.7446 76.5502 17.6924 76.2835 17.6924 75.9991C17.6924 75.7147 17.7446 75.4481 17.8492 75.1992C17.9537 74.9503 18.1104 74.7193 18.3195 74.5059L23.7543 68.9599C24.4162 68.2844 25.1743 68.1337 26.0285 68.5077C26.8827 68.8817 27.3092 69.5479 27.3078 70.5064V81.4919C27.3078 82.4517 26.8806 83.1187 26.0264 83.4927C25.1722 83.8667 24.4148 83.7153 23.7543 83.0383Z" fill="#373737"/>
</g>
</svg>
