<svg width="56" height="56" viewBox="0 0 56 56" fill="none" xmlns="http://www.w3.org/2000/svg">
<path opacity="0.5" d="M51.3334 28C51.3334 40.8866 40.8866 51.3334 28.0001 51.3334C15.1134 51.3334 4.66675 40.8866 4.66675 28C4.66675 15.1134 15.1134 4.66669 28.0001 4.66669C40.8866 4.66669 51.3334 15.1134 51.3334 28Z" fill="#1C274C"/>
<path d="M39.2164 44.3595C36.0263 46.5509 32.163 47.8333 28.0001 47.8333C23.8372 47.8333 19.9739 46.5507 16.7837 44.3592C15.3748 43.3914 14.7726 41.5478 15.5919 40.0475C17.2901 36.9371 20.7894 35 28.0001 35C35.2108 35 38.7101 36.9374 40.4083 40.0475C41.2275 41.5478 40.6253 43.3916 39.2164 44.3595Z" fill="#1C274C"/>
<path d="M27.9999 28C31.866 28 34.9999 24.8661 34.9999 21C34.9999 17.134 31.866 14 27.9999 14C24.134 14 21 17.134 21 21C21 24.8661 24.134 28 27.9999 28Z" fill="#1C274C"/>
</svg>
