<svg width="160" height="46" viewBox="0 0 160 46" fill="none" xmlns="http://www.w3.org/2000/svg">
<rect x="1.5" y="1.5" width="157" height="43" rx="6.5" stroke="#C4C4C4" stroke-width="3"/>
<g clip-path="url(#clip0_1_1515)">
<path d="M26.5 32.9055C26.1429 33.058 25.8036 33.0248 25.4821 32.806C25.1607 32.5871 25 32.2675 25 31.8473V15.288C25 14.6588 25.21 14.12 25.63 13.6715C26.05 13.2231 26.5543 12.9992 27.1429 13H37.8571C38.4464 13 38.9511 13.2242 39.3711 13.6727C39.7911 14.1211 40.0007 14.6596 40 15.288V31.8473C40 32.2668 39.8393 32.5863 39.5179 32.806C39.1964 33.0256 38.8571 33.0588 38.5 32.9055L32.5 30.1599L26.5 32.9055Z" fill="#808080"/>
</g>
<path d="M57.656 28.168C56.2093 28.168 55.0053 27.692 54.044 26.74C53.092 25.7787 52.616 24.5653 52.616 23.1C52.616 21.6347 53.092 20.426 54.044 19.474C55.0053 18.5127 56.2093 18.032 57.656 18.032C58.4213 18.032 59.1307 18.1813 59.784 18.48C60.4373 18.7787 60.9833 19.2033 61.422 19.754C61.87 20.3047 62.178 20.944 62.346 21.672H60.722C60.4887 21.0187 60.1013 20.51 59.56 20.146C59.0187 19.7727 58.384 19.586 57.656 19.586C56.676 19.586 55.864 19.9173 55.22 20.58C54.576 21.2427 54.254 22.0873 54.254 23.114C54.254 24.1313 54.576 24.9713 55.22 25.634C55.864 26.2873 56.676 26.614 57.656 26.614C58.4027 26.614 59.0513 26.418 59.602 26.026C60.1527 25.6247 60.5353 25.0787 60.75 24.388H62.388C62.136 25.536 61.5807 26.4553 60.722 27.146C59.8633 27.8273 58.8413 28.168 57.656 28.168ZM70.3178 27.062C69.5525 27.8087 68.5911 28.182 67.4338 28.182C66.2765 28.182 65.3105 27.8087 64.5358 27.062C63.7705 26.306 63.3878 25.3587 63.3878 24.22C63.3878 23.4733 63.5605 22.7967 63.9058 22.19C64.2605 21.5833 64.7458 21.112 65.3618 20.776C65.9871 20.4307 66.6778 20.258 67.4338 20.258C68.1898 20.258 68.8758 20.4307 69.4918 20.776C70.1171 21.112 70.6025 21.5833 70.9478 22.19C71.3025 22.7967 71.4798 23.4733 71.4798 24.22C71.4798 25.3587 71.0925 26.306 70.3178 27.062ZM67.4338 26.698C67.9098 26.698 68.3345 26.5953 68.7078 26.39C69.0811 26.1753 69.3705 25.8813 69.5758 25.508C69.7905 25.1253 69.8978 24.696 69.8978 24.22C69.8978 23.5013 69.6645 22.9087 69.1978 22.442C68.7405 21.9753 68.1525 21.742 67.4338 21.742C66.7151 21.742 66.1225 21.9753 65.6558 22.442C65.1985 22.9087 64.9698 23.5013 64.9698 24.22C64.9698 24.9387 65.1985 25.5313 65.6558 25.998C66.1225 26.4647 66.7151 26.698 67.4338 26.698ZM79.0915 28H77.3415L75.4515 25.116L73.5475 28H71.8395L74.5275 24.094L72.0495 20.44H73.7855L75.4655 22.988L77.1875 20.44H78.8955L76.3755 24.01L79.0915 28ZM84.3183 20.258C85.065 20.258 85.737 20.4307 86.3343 20.776C86.9317 21.112 87.3983 21.5833 87.7343 22.19C88.0703 22.7967 88.2383 23.4733 88.2383 24.22C88.2383 25.3587 87.865 26.306 87.1183 27.062C86.381 27.8087 85.4477 28.182 84.3183 28.182C83.3477 28.182 82.5123 27.8787 81.8123 27.272V30.716H80.2583V20.44H81.3083L81.6023 21.364C82.3303 20.6267 83.2357 20.258 84.3183 20.258ZM82.4283 25.998C82.895 26.4647 83.483 26.698 84.1923 26.698C84.911 26.698 85.5037 26.4647 85.9703 25.998C86.437 25.522 86.6703 24.9293 86.6703 24.22C86.6703 23.5107 86.437 22.9227 85.9703 22.456C85.5037 21.98 84.9157 21.742 84.2063 21.742C83.7397 21.742 83.315 21.8493 82.9323 22.064C82.5497 22.2787 82.251 22.5773 82.0363 22.96C81.831 23.3333 81.7283 23.7533 81.7283 24.22C81.7283 24.9293 81.9617 25.522 82.4283 25.998ZM96.2387 20.44H97.4427V28H96.1827L96.0287 27.076C95.3007 27.8133 94.3907 28.182 93.2987 28.182C92.1694 28.182 91.2267 27.804 90.4707 27.048C89.724 26.292 89.3507 25.3493 89.3507 24.22C89.3507 23.0813 89.724 22.1387 90.4707 21.392C91.2267 20.636 92.1694 20.258 93.2987 20.258C94.4094 20.258 95.3287 20.6313 96.0567 21.378L96.2387 20.44ZM91.6327 25.998C92.1087 26.4647 92.7014 26.698 93.4107 26.698C94.1294 26.698 94.7174 26.4647 95.1747 25.998C95.6414 25.522 95.8747 24.9293 95.8747 24.22C95.8747 23.5013 95.6414 22.9087 95.1747 22.442C94.7174 21.9753 94.1294 21.742 93.4107 21.742C92.944 21.742 92.5194 21.8493 92.1367 22.064C91.7634 22.2787 91.4694 22.5773 91.2547 22.96C91.04 23.3333 90.9327 23.7533 90.9327 24.22C90.9327 24.9293 91.166 25.522 91.6327 25.998ZM104.699 20.44H106.225V28H104.699V24.836H101.199V28H99.6587V20.44H101.199V23.408H104.699V20.44ZM115.618 24.234C115.618 24.374 115.609 24.5467 115.59 24.752H109.458C109.551 25.3587 109.803 25.8393 110.214 26.194C110.634 26.5487 111.152 26.726 111.768 26.726C112.067 26.726 112.347 26.684 112.608 26.6C112.869 26.5067 113.098 26.3807 113.294 26.222C113.499 26.054 113.667 25.8533 113.798 25.62H115.436C115.137 26.4227 114.661 27.0527 114.008 27.51C113.355 27.958 112.608 28.182 111.768 28.182C110.657 28.182 109.729 27.804 108.982 27.048C108.245 26.292 107.876 25.3493 107.876 24.22C107.876 23.0907 108.245 22.148 108.982 21.392C109.729 20.636 110.657 20.258 111.768 20.258C112.524 20.258 113.196 20.44 113.784 20.804C114.372 21.1587 114.825 21.6393 115.142 22.246C115.459 22.8433 115.618 23.506 115.618 24.234ZM111.768 21.658C111.189 21.658 110.695 21.8213 110.284 22.148C109.883 22.4747 109.617 22.9227 109.486 23.492H114.064C113.971 23.1093 113.817 22.7827 113.602 22.512C113.387 22.232 113.121 22.022 112.804 21.882C112.496 21.7327 112.151 21.658 111.768 21.658ZM122.308 20.44H123.834V28H122.308V24.836H118.808V28H117.268V20.44H118.808V23.408H122.308V20.44ZM132.415 27.062C131.65 27.8087 130.689 28.182 129.531 28.182C128.374 28.182 127.408 27.8087 126.633 27.062C125.868 26.306 125.485 25.3587 125.485 24.22C125.485 23.4733 125.658 22.7967 126.003 22.19C126.358 21.5833 126.843 21.112 127.459 20.776C128.085 20.4307 128.775 20.258 129.531 20.258C130.287 20.258 130.973 20.4307 131.589 20.776C132.215 21.112 132.7 21.5833 133.045 22.19C133.4 22.7967 133.577 23.4733 133.577 24.22C133.577 25.3587 133.19 26.306 132.415 27.062ZM129.531 26.698C130.007 26.698 130.432 26.5953 130.805 26.39C131.179 26.1753 131.468 25.8813 131.673 25.508C131.888 25.1253 131.995 24.696 131.995 24.22C131.995 23.5013 131.762 22.9087 131.295 22.442C130.838 21.9753 130.25 21.742 129.531 21.742C128.813 21.742 128.22 21.9753 127.753 22.442C127.296 22.9087 127.067 23.5013 127.067 24.22C127.067 24.9387 127.296 25.5313 127.753 25.998C128.22 26.4647 128.813 26.698 129.531 26.698Z" fill="#808080"/>
<defs>
<clipPath id="clip0_1_1515">
<rect width="15" height="20" fill="white" transform="translate(25 13)"/>
</clipPath>
</defs>
</svg>
