<svg width="154" height="40" viewBox="0 0 154 40" fill="none" xmlns="http://www.w3.org/2000/svg">
<rect width="154" height="40" rx="5" fill="#C75E5E"/>
<g clip-path="url(#clip0_1_1515)">
<path d="M23.5 29.9055C23.1429 30.058 22.8036 30.0248 22.4821 29.806C22.1607 29.5871 22 29.2675 22 28.8473V12.288C22 11.6588 22.21 11.12 22.63 10.6715C23.05 10.2231 23.5543 9.99924 24.1429 10H34.8571C35.4464 10 35.9511 10.2242 36.3711 10.6727C36.7911 11.1211 37.0007 11.6596 37 12.288V28.8473C37 29.2668 36.8393 29.5863 36.5179 29.806C36.1964 30.0256 35.8571 30.0588 35.5 29.9055L29.5 27.1599L23.5 29.9055Z" fill="white"/>
</g>
<path d="M54.656 25.168C53.2093 25.168 52.0053 24.692 51.044 23.74C50.092 22.7787 49.616 21.5653 49.616 20.1C49.616 18.6347 50.092 17.426 51.044 16.474C52.0053 15.5127 53.2093 15.032 54.656 15.032C55.4213 15.032 56.1307 15.1813 56.784 15.48C57.4373 15.7787 57.9833 16.2033 58.422 16.754C58.87 17.3047 59.178 17.944 59.346 18.672H57.722C57.4887 18.0187 57.1013 17.51 56.56 17.146C56.0187 16.7727 55.384 16.586 54.656 16.586C53.676 16.586 52.864 16.9173 52.22 17.58C51.576 18.2427 51.254 19.0873 51.254 20.114C51.254 21.1313 51.576 21.9713 52.22 22.634C52.864 23.2873 53.676 23.614 54.656 23.614C55.4027 23.614 56.0513 23.418 56.602 23.026C57.1527 22.6247 57.5353 22.0787 57.75 21.388H59.388C59.136 22.536 58.5807 23.4553 57.722 24.146C56.8633 24.8273 55.8413 25.168 54.656 25.168ZM67.3178 24.062C66.5525 24.8087 65.5911 25.182 64.4338 25.182C63.2765 25.182 62.3105 24.8087 61.5358 24.062C60.7705 23.306 60.3878 22.3587 60.3878 21.22C60.3878 20.4733 60.5605 19.7967 60.9058 19.19C61.2605 18.5833 61.7458 18.112 62.3618 17.776C62.9871 17.4307 63.6778 17.258 64.4338 17.258C65.1898 17.258 65.8758 17.4307 66.4918 17.776C67.1171 18.112 67.6025 18.5833 67.9478 19.19C68.3025 19.7967 68.4798 20.4733 68.4798 21.22C68.4798 22.3587 68.0925 23.306 67.3178 24.062ZM64.4338 23.698C64.9098 23.698 65.3345 23.5953 65.7078 23.39C66.0811 23.1753 66.3705 22.8813 66.5758 22.508C66.7905 22.1253 66.8978 21.696 66.8978 21.22C66.8978 20.5013 66.6645 19.9087 66.1978 19.442C65.7405 18.9753 65.1525 18.742 64.4338 18.742C63.7151 18.742 63.1225 18.9753 62.6558 19.442C62.1985 19.9087 61.9698 20.5013 61.9698 21.22C61.9698 21.9387 62.1985 22.5313 62.6558 22.998C63.1225 23.4647 63.7151 23.698 64.4338 23.698ZM76.0915 25H74.3415L72.4515 22.116L70.5475 25H68.8395L71.5275 21.094L69.0495 17.44H70.7855L72.4655 19.988L74.1875 17.44H75.8955L73.3755 21.01L76.0915 25ZM81.3183 17.258C82.065 17.258 82.737 17.4307 83.3343 17.776C83.9317 18.112 84.3983 18.5833 84.7343 19.19C85.0703 19.7967 85.2383 20.4733 85.2383 21.22C85.2383 22.3587 84.865 23.306 84.1183 24.062C83.381 24.8087 82.4477 25.182 81.3183 25.182C80.3477 25.182 79.5123 24.8787 78.8123 24.272V27.716H77.2583V17.44H78.3083L78.6023 18.364C79.3303 17.6267 80.2357 17.258 81.3183 17.258ZM79.4283 22.998C79.895 23.4647 80.483 23.698 81.1923 23.698C81.911 23.698 82.5037 23.4647 82.9703 22.998C83.437 22.522 83.6703 21.9293 83.6703 21.22C83.6703 20.5107 83.437 19.9227 82.9703 19.456C82.5037 18.98 81.9157 18.742 81.2063 18.742C80.7397 18.742 80.315 18.8493 79.9323 19.064C79.5497 19.2787 79.251 19.5773 79.0363 19.96C78.831 20.3333 78.7283 20.7533 78.7283 21.22C78.7283 21.9293 78.9617 22.522 79.4283 22.998ZM93.2387 17.44H94.4427V25H93.1827L93.0287 24.076C92.3007 24.8133 91.3907 25.182 90.2987 25.182C89.1694 25.182 88.2267 24.804 87.4707 24.048C86.724 23.292 86.3507 22.3493 86.3507 21.22C86.3507 20.0813 86.724 19.1387 87.4707 18.392C88.2267 17.636 89.1694 17.258 90.2987 17.258C91.4094 17.258 92.3287 17.6313 93.0567 18.378L93.2387 17.44ZM88.6327 22.998C89.1087 23.4647 89.7014 23.698 90.4107 23.698C91.1294 23.698 91.7174 23.4647 92.1747 22.998C92.6414 22.522 92.8747 21.9293 92.8747 21.22C92.8747 20.5013 92.6414 19.9087 92.1747 19.442C91.7174 18.9753 91.1294 18.742 90.4107 18.742C89.944 18.742 89.5194 18.8493 89.1367 19.064C88.7634 19.2787 88.4694 19.5773 88.2547 19.96C88.04 20.3333 87.9327 20.7533 87.9327 21.22C87.9327 21.9293 88.166 22.522 88.6327 22.998ZM101.699 17.44H103.225V25H101.699V21.836H98.1987V25H96.6587V17.44H98.1987V20.408H101.699V17.44ZM112.618 21.234C112.618 21.374 112.609 21.5467 112.59 21.752H106.458C106.551 22.3587 106.803 22.8393 107.214 23.194C107.634 23.5487 108.152 23.726 108.768 23.726C109.067 23.726 109.347 23.684 109.608 23.6C109.869 23.5067 110.098 23.3807 110.294 23.222C110.499 23.054 110.667 22.8533 110.798 22.62H112.436C112.137 23.4227 111.661 24.0527 111.008 24.51C110.355 24.958 109.608 25.182 108.768 25.182C107.657 25.182 106.729 24.804 105.982 24.048C105.245 23.292 104.876 22.3493 104.876 21.22C104.876 20.0907 105.245 19.148 105.982 18.392C106.729 17.636 107.657 17.258 108.768 17.258C109.524 17.258 110.196 17.44 110.784 17.804C111.372 18.1587 111.825 18.6393 112.142 19.246C112.459 19.8433 112.618 20.506 112.618 21.234ZM108.768 18.658C108.189 18.658 107.695 18.8213 107.284 19.148C106.883 19.4747 106.617 19.9227 106.486 20.492H111.064C110.971 20.1093 110.817 19.7827 110.602 19.512C110.387 19.232 110.121 19.022 109.804 18.882C109.496 18.7327 109.151 18.658 108.768 18.658ZM119.308 17.44H120.834V25H119.308V21.836H115.808V25H114.268V17.44H115.808V20.408H119.308V17.44ZM129.415 24.062C128.65 24.8087 127.689 25.182 126.531 25.182C125.374 25.182 124.408 24.8087 123.633 24.062C122.868 23.306 122.485 22.3587 122.485 21.22C122.485 20.4733 122.658 19.7967 123.003 19.19C123.358 18.5833 123.843 18.112 124.459 17.776C125.085 17.4307 125.775 17.258 126.531 17.258C127.287 17.258 127.973 17.4307 128.589 17.776C129.215 18.112 129.7 18.5833 130.045 19.19C130.4 19.7967 130.577 20.4733 130.577 21.22C130.577 22.3587 130.19 23.306 129.415 24.062ZM126.531 23.698C127.007 23.698 127.432 23.5953 127.805 23.39C128.179 23.1753 128.468 22.8813 128.673 22.508C128.888 22.1253 128.995 21.696 128.995 21.22C128.995 20.5013 128.762 19.9087 128.295 19.442C127.838 18.9753 127.25 18.742 126.531 18.742C125.813 18.742 125.22 18.9753 124.753 19.442C124.296 19.9087 124.067 20.5013 124.067 21.22C124.067 21.9387 124.296 22.5313 124.753 22.998C125.22 23.4647 125.813 23.698 126.531 23.698Z" fill="white"/>
<defs>
<clipPath id="clip0_1_1515">
<rect width="15" height="20" fill="white" transform="translate(22 10)"/>
</clipPath>
</defs>
</svg>
