<svg width="45" height="156" viewBox="0 0 45 156" fill="none" xmlns="http://www.w3.org/2000/svg">
<mask id="mask0_78_297" style="mask-type:alpha" maskUnits="userSpaceOnUse" x="0" y="0" width="45" height="156">
<rect width="45" height="156" fill="#D9D9D9"/>
</mask>
<g mask="url(#mask0_78_297)">
<path d="M35 36H9.5C3.97715 36 -0.5 31.5228 -0.5 26V10C-0.5 4.47715 -4.97715 0 -10.5 0H-32C-37.5228 0 -42 4.47716 -42 10V146C-42 151.523 -37.5228 156 -32 156H-10.5C-4.97715 156 -0.5 151.523 -0.5 146V126.5C-0.5 120.977 3.97715 116.5 9.5 116.5H35C40.5229 116.5 45 112.023 45 106.5V46C45 40.4772 40.5229 36 35 36Z" fill="white"/>
<path d="M21.2457 83.0383L26.6805 77.4923C26.8896 77.279 27.0463 77.0479 27.1508 76.799C27.2554 76.5502 27.3076 76.2835 27.3076 75.9991C27.3076 75.7147 27.2554 75.4481 27.1508 75.1992C27.0463 74.9503 26.8896 74.7193 26.6805 74.5059L21.2457 68.9599C20.5838 68.2844 19.8257 68.1337 18.9715 68.5077C18.1173 68.8817 17.6908 69.5479 17.6922 70.5064V81.4919C17.6922 82.4517 18.1194 83.1187 18.9736 83.4927C19.8278 83.8667 20.5852 83.7153 21.2457 83.0383Z" fill="#373737"/>
</g>
</svg>
