<svg width="200" height="200" viewBox="0 0 200 200" fill="none" xmlns="http://www.w3.org/2000/svg">
<g clip-path="url(#clip0_75_482)">
<path d="M200 100C200 44.7715 155.228 0 100 0C44.7715 0 0 44.7715 0 100C0 155.228 44.7715 200 100 200C155.228 200 200 155.228 200 100Z" fill="#7882B9"/>
<path d="M73.9 100C81.8949 100 88.4 93.4576 88.4 85.4167C88.4 77.3758 81.8949 70.8333 73.9 70.8333C65.9051 70.8333 59.4 77.3758 59.4 85.4167C59.4 93.4576 65.9051 100 73.9 100ZM137.7 76.6667H97.1C95.4978 76.6667 94.2 77.9719 94.2 79.5833V105.833H53.6V67.9167C53.6 66.3052 52.3022 65 50.7 65H44.9C43.2977 65 42 66.3052 42 67.9167V132.083C42 133.695 43.2977 135 44.9 135H50.7C52.3022 135 53.6 133.695 53.6 132.083V123.333H146.4V132.083C146.4 133.695 147.698 135 149.3 135H155.1C156.702 135 158 133.695 158 132.083V97.0833C158 85.8068 148.912 76.6667 137.7 76.6667Z" fill="black" fill-opacity="0.7"/>
</g>
<g clip-path="url(#clip1_75_482)">
<path d="M200 100C200 44.7715 155.228 0 100 0C44.7715 0 0 44.7715 0 100C0 155.228 44.7715 200 100 200C155.228 200 200 155.228 200 100Z" fill="#757575" fill-opacity="0.3"/>
<path d="M73.9 100C81.8949 100 88.4 93.4576 88.4 85.4167C88.4 77.3758 81.8949 70.8333 73.9 70.8333C65.9051 70.8333 59.4 77.3758 59.4 85.4167C59.4 93.4576 65.9051 100 73.9 100ZM137.7 76.6667H97.1C95.4978 76.6667 94.2 77.9719 94.2 79.5833V105.833H53.6V67.9167C53.6 66.3052 52.3022 65 50.7 65H44.9C43.2977 65 42 66.3052 42 67.9167V132.083C42 133.695 43.2977 135 44.9 135H50.7C52.3022 135 53.6 133.695 53.6 132.083V123.333H146.4V132.083C146.4 133.695 147.698 135 149.3 135H155.1C156.702 135 158 133.695 158 132.083V97.0833C158 85.8068 148.912 76.6667 137.7 76.6667Z" fill="#757575" fill-opacity="0.3"/>
</g>
<defs>
<clipPath id="clip0_75_482">
<rect width="200" height="200" fill="white"/>
</clipPath>
<clipPath id="clip1_75_482">
<rect width="200" height="200" fill="white"/>
</clipPath>
</defs>
</svg>
