<svg width="200" height="200" viewBox="0 0 200 200" fill="none" xmlns="http://www.w3.org/2000/svg">
<g clip-path="url(#clip0_75_497)">
<path d="M200 100C200 44.7715 155.228 0 100 0C44.7715 0 0 44.7715 0 100C0 155.228 44.7715 200 100 200C155.228 200 200 155.228 200 100Z" fill="#B99844"/>
<path d="M100 47L55 70.5714V80H145V70.5714M121.316 89.4286V122.429H135.526V89.4286M55 146H145V131.857H55M92.8947 89.4286V122.429H107.105V89.4286M64.4737 89.4286V122.429H78.6842V89.4286H64.4737Z" fill="black" fill-opacity="0.7"/>
</g>
<g clip-path="url(#clip1_75_497)">
<path d="M200 100C200 44.7715 155.228 0 100 0C44.7715 0 0 44.7715 0 100C0 155.228 44.7715 200 100 200C155.228 200 200 155.228 200 100Z" fill="#757575" fill-opacity="0.3"/>
<path d="M100 47L55 70.5714V80H145V70.5714M121.316 89.4286V122.429H135.526V89.4286M55 146H145V131.857H55M92.8947 89.4286V122.429H107.105V89.4286M64.4737 89.4286V122.429H78.6842V89.4286H64.4737Z" fill="#757575" fill-opacity="0.3"/>
</g>
<defs>
<clipPath id="clip0_75_497">
<rect width="200" height="200" fill="white"/>
</clipPath>
<clipPath id="clip1_75_497">
<rect width="200" height="200" fill="white"/>
</clipPath>
</defs>
</svg>
