<svg width="200" height="200" viewBox="0 0 200 200" fill="none" xmlns="http://www.w3.org/2000/svg">
<g clip-path="url(#clip0_75_491)">
<path d="M200 100C200 44.7715 155.228 0 100 0C44.7715 0 0 44.7715 0 100C0 155.228 44.7715 200 100 200C155.228 200 200 155.228 200 100Z" fill="#B7B944"/>
<path d="M141.084 82.7089L115 99.3079V86.5054C115 82.9587 111.075 80.8056 108.084 82.7089L82 99.3079V62.5C82 60.0147 79.9853 58 77.5 58H56.5C54.0147 58 52 60.0147 52 62.5V137.5C52 139.985 54.0147 142 56.5 142H143.5C145.985 142 148 139.985 148 137.5V86.5054C148 82.9585 144.075 80.8056 141.084 82.7089Z" fill="black" fill-opacity="0.7"/>
</g>
<g clip-path="url(#clip1_75_491)">
<path d="M200 100C200 44.7715 155.228 0 100 0C44.7715 0 0 44.7715 0 100C0 155.228 44.7715 200 100 200C155.228 200 200 155.228 200 100Z" fill="#757575" fill-opacity="0.3"/>
<path d="M141.084 82.7089L115 99.3079V86.5054C115 82.9587 111.075 80.8056 108.084 82.7089L82 99.3079V62.5C82 60.0147 79.9853 58 77.5 58H56.5C54.0147 58 52 60.0147 52 62.5V137.5C52 139.985 54.0147 142 56.5 142H143.5C145.985 142 148 139.985 148 137.5V86.5054C148 82.9585 144.075 80.8056 141.084 82.7089Z" fill="#757575" fill-opacity="0.3"/>
</g>
<defs>
<clipPath id="clip0_75_491">
<rect width="200" height="200" fill="white"/>
</clipPath>
<clipPath id="clip1_75_491">
<rect width="200" height="200" fill="white"/>
</clipPath>
</defs>
</svg>
